<?xml version="1.0" encoding="utf-8"?>
<!-- Generator: Adobe Illustrator 25.0.0, SVG Export Plug-In . SVG Version: 6.00 Build 0)  -->
<svg version="1.1" id="Layer_1" xmlns="http://www.w3.org/2000/svg" xmlns:xlink="http://www.w3.org/1999/xlink" x="0px" y="0px"
	 viewBox="0 0 500 500" style="enable-background:new 0 0 500 500;" xml:space="preserve">
<style type="text/css">
	.st0{fill:#FFFFFF;}
</style>
<g>
	<path d="M497.7,250.3C497.7,113.7,387,3,250.4,3S3.1,113.7,3.1,250.3c0,115.1,78.7,211.9,185.2,239.4l-0.8-4.6v-46.3h-38.5
		l-12.4-3.5l-9-5.7l-7-6.9l-4.7-7.5l-4.7-11.2l-4-12.8l-4.7-10.1L94.3,371l-7.8-6.7l-1.8-2.1v-2.6l1.8-2.6l4.4-1.1l4.9,1.2l6.4,2.8
		l6.3,3.8l4.4,3.7l5,5.2l5.8,7.3l6,6.7l5.3,5.5l5.5,3.2l12.2,2.3l10.1,0.9l9.3-0.5l10.4-0.1l6.7-1.2l4.3-1.5l2-2.8l2.5-7.2l4.6-6.9
		l5.1-7.2l5-5.5l5-5.4l4.4-2.6l4.7-2.8v-2h-10.7l-13.8-3.1l-10.9-2.5l-8-2.6l-10.9-2.9l-10.9-5.4l-10.5-5.8l-8.6-5.2l-8-6.9
		l-6.7-6.3l-5.7-5.7l-4.4-7.5l-4.3-7.8l-4-10.1l-3.1-10.9l-2-11.8l-1.1-12.8l2.1-12.5l2.8-11.6l5.1-13.5l6.7-11.5l6-8.4l6.3-6.3
		l-2.4-9.2l-2.9-13.9l-1.7-11.9l-0.3-8.6l0.6-11.3l1.4-9.2l3.4-7l4.7-4h9.5l10.1,2.3l9.8,3.5l11.9,5.8l8.9,6l9,8l5.5,5.7l9.5-3.5
		l14.7-3.1l10.9-2.1l10.9-1.2l13.5-0.6l14.4,0.5l18.6,2.4l10.1,2l8.3,2.1l9.2,3.1l5-4.7l5.4-5l6.1-4.7l5.7-4.1l9.9-4.7l9.5-3.1
		l9.5-2.5l9.8-1.8h4.3l5,6l2,5.7l1.8,7.2l1.2,6.6v10.4l-1.7,10.1l-0.9,8.6l-1.8,8l-2.5,7.7c-0.8,2.7-0.1,5.7,1.9,7.7l2.5,2.5
		l5.8,8.6l4.4,7.4c0.2,0.3,0.3,0.5,0.5,0.8l3.6,7.2c0,0,2.1,5.6,2.8,7.5c0.8,2.2,2.9,9,2.9,9l2.8,13.1l0.8,10.7l-1.1,8.6l-1.2,9.2
		l-4,13.3l-4.3,9.9l-6.3,10.7l-8.1,10.1l-10.5,9.5l-11,7.2l-11,6.3l-10.2,4.6l-10.2,3.8l-18.2,4.9l-15.3,2.5l-10.7,1.7l3.7,2.9
		l4.4,3.4l4.1,3.8l5.4,5.4l4.7,7.2l4.4,7.3l3.4,6.6l2.9,7l2.9,9.2l2.1,7.8l1.5,11.8l-0.5,57.2C429,449.4,497.7,357.9,497.7,250.3z"
		/>
	<path class="st0" d="M188.3,489.8l0.3,1.7l8.9,2.1l10.3,2l15.2,2.1l16.6,1.2l16.5,0.1l11-0.5l11.1-1l9.7-1.3l12-2.2l15.6-3.8
		l9.1-2.9l8.4-2.7l0-1.2c-25.8,9.2-53.7,14.2-82.6,14.2C229,497.6,208.2,494.9,188.3,489.8z"/>
</g>
</svg>
